<svg version="1.1" id="image-from-rawpixel-id-592300-original_xA0_Image_1_"
   xmlns="http://www.w3.org/2000/svg" xmlns:xlink="http://www.w3.org/1999/xlink" x="0px" y="0px" viewBox="0 0 100 31.79"
   style="enable-background:new 0 0 100 31.79;" xml:space="preserve">
<style type="text/css">
  .st0{display:none;}
  .st1{display:inline;fill:none;stroke:#E7C459;stroke-width:3.6362;stroke-linecap:round;stroke-miterlimit:10;}
  .st2{display:inline;fill:none;stroke:#E7C459;stroke-width:4.0189;stroke-linecap:round;stroke-miterlimit:10;}
</style>
<g class="st0">
  <polygon class="st1" points="1046.4,-29.91 1272.43,297.03 1046.4,623.96 820.37,297.03   "/>
  <polygon class="st2" points="1046.4,-65.34 1296.22,296.02 1046.4,657.37 796.58,296.02   "/>
</g>
<rect x="1584.87" y="510.51" style="fill:none;" width="2.25" height="0"/>
<g>
  <path d="M29.31,26.09c0.23-0.49,0.41-0.99,0.54-1.49c1.25-0.95,2.66-1.92,4.19-2.9c0.71-0.46,1.39-0.87,2.02-1.24
    c-0.25,0.79-0.43,1.48-0.54,2.08c-0.14,0.73-0.02,1.24,0.37,1.52c0.17,0.13,0.37,0.2,0.58,0.2c0.17,0,0.35-0.04,0.52-0.13
    c0.19-0.09,0.5-0.3,1.37-1.14c0.62-0.6,1.51-1.55,2.63-2.83c0.64-0.72,1.25-1.27,1.81-1.64c0.21-0.14,0.36-0.22,0.46-0.26
    c-0.01,0.1-0.02,0.27-0.06,0.54c-0.06,0.44-0.2,1.02-0.42,1.72c-0.32,1.01-0.51,1.75-0.57,2.25c-0.08,0.65,0.03,1.12,0.32,1.43
    l0.01,0.01l0.01,0.01c0.22,0.21,0.49,0.32,0.79,0.32c0.26,0,0.54-0.08,0.89-0.27c0.29-0.15,0.57-0.32,0.83-0.5
    c0.24-0.17,0.63-0.45,1.16-0.84c2.22-1.61,4.14-2.84,5.7-3.64l0,0l0,0c0.42-0.23,0.59-0.66,0.43-1.14
    c-0.19-0.58-0.65-0.63-0.79-0.63c-0.12,0-0.24,0.03-0.36,0.08l-0.01,0.01l-0.01,0.01c-1.64,0.84-3.63,2.12-5.92,3.8
    c-0.53,0.39-0.93,0.66-1.22,0.85c0.07-0.29,0.18-0.68,0.34-1.19c0.75-2.32,0.75-3.71-0.01-4.37c-0.24-0.21-0.55-0.33-0.89-0.33
    c-0.28,0-0.56,0.06-0.83,0.17c-0.24,0.1-0.5,0.24-0.77,0.43c-0.25,0.17-0.48,0.34-0.69,0.51c-0.21,0.17-0.43,0.36-0.65,0.58
    c-0.2,0.2-0.36,0.36-0.47,0.47c-0.12,0.12-0.23,0.24-0.33,0.36c-0.93,1.04-1.62,1.79-2.13,2.32c0.18-0.6,0.41-1.27,0.69-1.99
    c0.14-0.1,0.25-0.22,0.31-0.37c0.1-0.09,0.2-0.19,0.31-0.29c0.22-0.21,0.42-0.39,0.59-0.55c0.15-0.14,0.37-0.35,0.67-0.61
    c0.74-0.67,1.33-1.21,1.74-1.61c0.42-0.4,0.94-0.92,1.59-1.59c0.64-0.67,1.2-1.31,1.67-1.9c1.55-1.96,2.71-3.78,3.46-5.4
    c0.8-1.73,1.06-3.06,0.79-4.07l0-0.01l0-0.01c-0.26-0.91-0.85-1.22-1.31-1.31l-0.02,0l-0.02,0c-0.09-0.01-0.18-0.02-0.28-0.02
    c-0.47,0-0.98,0.16-1.55,0.5c-0.62,0.36-1.29,0.98-2.07,1.88C43.46,4.7,42.72,5.79,42,7.07c-0.84,1.51-1.54,2.84-2.09,3.95
    c-0.55,1.12-1.02,2.13-1.39,3.02c-0.37,0.87-0.89,2.16-1.54,3.82c-1.04,0.55-2.24,1.26-3.58,2.11c-1.19,0.76-2.33,1.52-3.4,2.29
    c0-0.03-0.01-0.06-0.01-0.08c-0.15-1.32-0.2-2.34-0.15-3.02c0.05-0.05,0.1-0.1,0.14-0.16c0.81-0.41,1.41-0.79,1.84-1.15
    c0.94-0.82,1.33-1.51,1.22-2.18l0-0.01l0-0.01c-0.09-0.48-0.41-0.82-0.89-0.93c-0.12-0.03-0.24-0.04-0.37-0.04
    c-0.45,0-0.94,0.17-1.5,0.53c-0.66,0.42-1.19,1.02-1.6,1.79c-0.15,0.28-0.27,0.58-0.35,0.91c-1.1,0.59-2.72,1.68-4.91,3.3
    c-1.06,0.76-1.43,1.01-1.56,1.09c-0.05,0.03-0.1,0.06-0.14,0.08c0.12-0.35,0.32-0.86,0.64-1.62c0.18-0.41,0.31-0.7,0.38-0.89
    c0.08-0.19,0.15-0.4,0.23-0.63c0.1-0.31,0.14-0.56,0.1-0.77c-0.03-0.21-0.12-0.4-0.26-0.56c-0.15-0.22-0.39-0.35-0.67-0.35
    c-0.04,0-0.08,0-0.12,0.01c-0.2,0.03-0.43,0.12-0.71,0.3c-0.24,0.15-0.56,0.42-0.99,0.82c-0.4,0.38-0.92,0.9-1.54,1.55
    c-0.42,0.43-0.82,0.83-1.19,1.18c-0.37,0.35-0.69,0.64-0.94,0.85c-0.24,0.21-0.47,0.38-0.67,0.52c-0.06,0.04-0.11,0.07-0.15,0.1
    c0.1-0.27,0.27-0.63,0.54-1.11c0.57-1.03,1.24-1.92,2-2.63c0.35-0.32,0.41-0.79,0.16-1.2c-0.23-0.38-0.54-0.44-0.71-0.44
    c-0.14,0-0.36,0.04-0.58,0.25c-0.9,0.86-1.69,1.89-2.35,3.07c-0.11,0.2-0.21,0.38-0.3,0.57c-0.26,0.38-0.58,0.82-0.89,1.21
    c-0.76,0.91-1.36,1.38-2.06,1.91c-6.08,4.53-8.5,5.48-9.47,5.48c-0.13,0-0.29-0.02-0.35-0.1c-0.14-0.18-0.64-1.41,2.7-8.38
    c1.14-2.39,2.64-5.26,4.44-8.54c1.8-3.28,3.98-7.16,6.48-11.53c0-0.01,0.01-0.01,0.01-0.02c0.22-0.42,0.15-0.87-0.2-1.18
    C15.03,0.04,14.82,0,14.68,0c0,0,0,0,0,0c-0.14,0-0.48,0.05-0.71,0.46c-1.39,2.42-2.63,4.61-3.69,6.5
    c-1.07,1.92-2.12,3.81-3.11,5.62c-1,1.83-1.87,3.47-2.59,4.88c-0.72,1.4-1.39,2.77-1.99,4.05c-0.61,1.3-1.1,2.43-1.46,3.36
    c-0.36,0.94-0.64,1.81-0.84,2.6C0.08,28.3-0.02,28.97,0,29.53c0.02,0.61,0.18,1.11,0.46,1.49c0.26,0.35,0.76,0.77,1.67,0.77
    c1.1,0,2.66-0.62,4.77-1.88c1.51-0.91,3.4-2.2,5.62-3.86c0.4-0.3,0.79-0.65,1.21-1.03c0.17-0.15,0.34-0.31,0.51-0.46
    c0.13,0.16,0.28,0.26,0.42,0.33c0.17,0.09,0.35,0.13,0.55,0.13c0.66,0,1.79-0.39,4.75-3.47c0.12-0.12,0.22-0.24,0.33-0.34
    c-0.05,0.13-0.09,0.24-0.13,0.34c-0.05,0.14-0.1,0.3-0.15,0.46c-0.04,0.16-0.08,0.29-0.11,0.41c-0.03,0.12-0.05,0.24-0.07,0.38
    c-0.03,0.18-0.03,0.33-0.01,0.48c0.02,0.12,0.04,0.24,0.08,0.35c0.04,0.14,0.11,0.27,0.21,0.38c0.16,0.21,0.46,0.45,0.97,0.45
    c0.43,0,0.95-0.18,1.59-0.56l0.01,0l0.01,0c0.23-0.14,0.77-0.53,1.66-1.19c1.55-1.14,2.8-2,3.76-2.6c0.02,0.64,0.08,1.4,0.18,2.28
    c0.03,0.36,0.03,0.74-0.02,1.11c-1.11,0.86-1.95,1.6-2.51,2.2c-1.82,1.95-2.44,3.14-2.06,3.97c0.18,0.42,0.55,0.67,1.02,0.67
    c0.22,0,0.47-0.06,0.76-0.18l0,0l0,0c0.28-0.12,0.58-0.3,0.91-0.55c0.32-0.23,0.65-0.53,1.01-0.89c0.35-0.35,0.69-0.74,1-1.16
    C28.75,27.15,29.05,26.65,29.31,26.09 M39.9,15.23c0.38-0.91,0.73-1.71,1.05-2.39c0.57-1.23,1.41-2.85,2.51-4.81
    c0.86-1.52,1.73-2.72,2.58-3.57c1.02-1.01,1.54-1.15,1.73-1.16l0.03,0.01c0,0.01,0,0.01,0.01,0.02c0.07,0.27,0.1,0.95-0.58,2.49
    c-0.68,1.54-1.8,3.32-3.34,5.28c-0.42,0.53-0.95,1.12-1.55,1.75c-0.61,0.64-1.12,1.15-1.53,1.53C40.56,14.62,40.26,14.9,39.9,15.23
    z"/>
  <path d="M99.96,18.18l-0.01-0.02l-0.01-0.02c-0.2-0.58-0.65-0.63-0.78-0.63c-0.12,0-0.24,0.03-0.36,0.08
    c-1.86,0.85-3.32,1.53-4.37,2.03c0.03-0.15,0.05-0.29,0.06-0.43c0.05-0.64-0.06-1.13-0.31-1.49c-0.35-0.55-0.89-0.84-1.58-0.84
    c-0.61,0-1.25,0.23-1.9,0.69l0,0l0,0c-0.4,0.29-0.84,0.69-1.31,1.19c-0.35,0.38-0.66,0.72-0.91,1.02c0.09-0.22,0.18-0.45,0.27-0.69
    c0.01-0.01,0.02-0.02,0.02-0.03c1.3-0.97,2.56-2.1,3.74-3.34c1.22-1.29,2.27-2.57,3.11-3.8c0.84-1.23,1.58-2.44,2.19-3.6
    c0.61-1.17,1.07-2.21,1.35-3.09c0.3-0.94,0.42-1.65,0.36-2.19l0,0l0,0c-0.1-0.85-0.58-1.12-0.87-1.21
    c-0.11-0.04-0.23-0.05-0.35-0.05c-0.16,0-0.33,0.03-0.5,0.1c-0.25,0.09-0.57,0.3-0.99,0.65C96.43,2.83,96,3.28,95.53,3.84
    c-0.46,0.55-1.05,1.35-1.76,2.37c-0.7,1.01-1.48,2.22-2.3,3.6c-1.53,2.49-2.88,5.17-4.04,7.96c-1.5,0.74-3.59,2.08-6.38,4.08
    c-0.26,0.18-0.48,0.34-0.68,0.48c0.14-0.3,0.31-0.66,0.52-1.08c0.14-0.28,0.53-1.07,0.27-1.69c0.03-0.11,0.05-0.24,0.04-0.39
    l0-0.01l0-0.01c-0.12-1.23-0.57-2.04-1.36-2.4c-0.23-0.11-0.48-0.16-0.74-0.16c-0.31,0-0.65,0.08-0.99,0.24
    c-0.54,0.25-1.08,0.7-1.6,1.33c-0.65,0.8-1.19,1.53-1.6,2.2c-0.02,0.02-0.03,0.04-0.04,0.06c-0.01,0.01-0.76,1.25-1.51,2.16
    c-0.76,0.91-1.36,1.38-2.06,1.91c-6.08,4.53-8.5,5.48-9.47,5.48c-0.13,0-0.29-0.02-0.35-0.1c-0.14-0.18-0.64-1.41,2.7-8.38
    c1.14-2.39,2.64-5.26,4.44-8.54c1.8-3.28,3.98-7.16,6.48-11.53c0-0.01,0.01-0.01,0.01-0.02c0.22-0.42,0.15-0.87-0.2-1.18
    C74.69,0.04,74.48,0,74.35,0c0,0,0,0,0,0c-0.14,0-0.48,0.05-0.71,0.46c-1.39,2.42-2.63,4.61-3.69,6.5
    c-1.07,1.92-2.12,3.81-3.11,5.62c-1,1.83-1.87,3.47-2.59,4.88c-0.72,1.4-1.39,2.77-1.99,4.05c-0.61,1.3-1.1,2.43-1.46,3.36
    c-0.36,0.94-0.64,1.81-0.84,2.6c-0.21,0.83-0.31,1.5-0.29,2.06c0.02,0.61,0.18,1.11,0.46,1.49c0.26,0.35,0.76,0.77,1.67,0.77
    c1.1,0,2.66-0.62,4.77-1.88c1.51-0.91,3.4-2.2,5.62-3.86c0.4-0.3,0.79-0.65,1.21-1.03c0.34-0.31,0.69-0.62,1.04-0.9
    c0.22,0.17,0.48,0.26,0.77,0.26c0.73,0,1.67-0.56,2.97-1.75l0.02-0.01l0.01-0.02l0.11-0.12c0.04-0.03,0.07-0.07,0.11-0.1
    c-0.15,0.34-0.25,0.6-0.32,0.8c-0.09,0.25-0.35,1.01,0.09,1.55c0.19,0.24,0.47,0.38,0.76,0.38c0.32,0,0.68-0.14,1.17-0.45
    c0.38-0.24,0.99-0.66,1.86-1.27l0,0l0,0c1.75-1.26,3.23-2.26,4.44-3c-0.2,0.58-0.36,1.12-0.49,1.6c-0.13,0.43-0.21,0.78-0.24,1.06
    c-0.04,0.34-0.04,0.53-0.01,0.69c0.04,0.18,0.13,0.35,0.26,0.49c0.18,0.2,0.4,0.3,0.64,0.3c0.29,0,0.54-0.14,0.77-0.43
    c0.23-0.29,0.59-0.76,1.12-1.44l0,0l0,0c0.46-0.62,0.82-1.1,1.08-1.43c0.25-0.32,0.59-0.7,1-1.14c0.4-0.42,0.77-0.76,1.09-0.99
    c0.25-0.18,0.49-0.3,0.7-0.36c0.14-0.04,0.23-0.05,0.29-0.05c0.04,0,0.07,0.01,0.07,0.01c0.02,0.01,0.03,0.01,0.03,0.01
    c0.04,0.09,0.05,0.22,0.05,0.37c0,0.13-0.04,0.36-0.21,0.77c-0.14,0.32-0.33,0.66-0.57,1.02c-0.87,0.48-1.68,0.98-2.4,1.49
    c-0.46,0.32-0.86,0.62-1.19,0.89c-0.33,0.28-0.58,0.49-0.74,0.65c-0.18,0.18-0.32,0.35-0.43,0.52c-0.13,0.21-0.19,0.35-0.21,0.48
    c-0.01,0.08-0.01,0.15-0.01,0.24v0.02l0,0.02c0.03,0.39,0.23,0.71,0.56,0.86l0.03,0.02l0.04,0.01c0.11,0.03,0.22,0.05,0.35,0.05
    c0.47,0,1.1-0.26,1.97-0.83c1.05-0.7,2-1.57,2.84-2.59c0.11-0.12,0.21-0.25,0.3-0.37c1.06-0.57,3.2-1.58,6.35-3.02
    c0.22-0.09,0.38-0.27,0.47-0.51C100.01,18.6,100.02,18.39,99.96,18.18z M90.45,15.28c0.75-1.55,1.57-3.05,2.45-4.49
    c0.85-1.38,1.64-2.61,2.35-3.64c0.7-1.02,1.29-1.79,1.73-2.29c0.29-0.33,0.54-0.59,0.75-0.8c-0.08,0.33-0.23,0.77-0.46,1.36
    c-0.45,1.13-1.1,2.39-1.94,3.74C93.9,11.47,92.27,13.52,90.45,15.28z M77.2,21.12l-0.12,0.11l0,0l0,0
    c-0.3,0.28-0.59,0.52-0.85,0.72c-0.14,0.1-0.25,0.18-0.35,0.25c0.1-0.19,0.23-0.44,0.42-0.76c0.36-0.6,0.85-1.29,1.47-2.04
    c0.7-0.85,1.13-0.97,1.32-0.97c0.04,0,0.07,0,0.1,0.01c0.14,0.1,0.25,0.38,0.3,0.78C79.03,19.49,78.34,20.04,77.2,21.12z"/>
</g>
</svg>
